<?xml version="1.0" encoding="UTF-8" standalone="no"?>
<svg
   xmlns:dc="http://purl.org/dc/elements/1.1/"
   xmlns:cc="http://creativecommons.org/ns#"
   xmlns:rdf="http://www.w3.org/1999/02/22-rdf-syntax-ns#"
   xmlns:svg="http://www.w3.org/2000/svg"
   xmlns="http://www.w3.org/2000/svg"
   xmlns:sodipodi="http://sodipodi.sourceforge.net/DTD/sodipodi-0.dtd"
   xmlns:inkscape="http://www.inkscape.org/namespaces/inkscape"
   width="38.879196mm"
   height="39.198669mm"
   viewBox="0 0 38.879196 39.198669"
   version="1.1"
   id="svg8"
   inkscape:version="1.0.1 (3bc2e813f5, 2020-09-07)"
   sodipodi:docname="icon.svg"
   inkscape:export-filename="/home/lukacu/Dropbox/Code/instasepa/src/assets/icon.png"
   inkscape:export-xdpi="334.35828"
   inkscape:export-ydpi="334.35828">
  <defs
     id="defs2" />
  <sodipodi:namedview
     id="base"
     pagecolor="#ffffff"
     bordercolor="#666666"
     borderopacity="1.0"
     inkscape:pageopacity="0.0"
     inkscape:pageshadow="2"
     inkscape:zoom="0.98994949"
     inkscape:cx="366.06869"
     inkscape:cy="241.16309"
     inkscape:document-units="mm"
     inkscape:current-layer="layer1"
     inkscape:document-rotation="0"
     showgrid="false"
     inkscape:window-width="1514"
     inkscape:window-height="968"
     inkscape:window-x="72"
     inkscape:window-y="27"
     inkscape:window-maximized="0"
     fit-margin-top="0"
     fit-margin-left="0"
     fit-margin-right="0"
     fit-margin-bottom="0" />
  <metadata
     id="metadata5">
    <rdf:RDF>
      <cc:Work
         rdf:about="">
        <dc:format>image/svg+xml</dc:format>
        <dc:type
           rdf:resource="http://purl.org/dc/dcmitype/StillImage" />
        <dc:title></dc:title>
      </cc:Work>
    </rdf:RDF>
  </metadata>
  <g
     inkscape:label="Layer 1"
     inkscape:groupmode="layer"
     id="layer1"
     transform="translate(-8.9776589,-10.774005)">
    <g
       id="g875"
       transform="matrix(0.67994496,0,0,0.67994496,-24.107413,-10.122981)">
      <rect
         style="opacity:0.987288;fill:#ffffff;fill-opacity:1;stroke:none;stroke-width:1.01381;stroke-linejoin:round;stroke-dasharray:6.08289, 1.01381;stroke-dashoffset:0.709671"
         id="rect859"
         width="49.57291"
         height="48.61031"
         x="52.585094"
         y="35.676064"
         ry="6.2247181" />
      <path
         style="fill:#000000;stroke-width:0.264583"
         d="m 56.741277,84.637859 c -1.28408,-0.407003 -3.2478,-2.445523 -3.64534,-3.784198 -0.4286,-1.443265 -0.43308,-7.294422 -0.006,-7.721595 0.17463,-0.174625 0.56753,-0.3175 0.87313,-0.3175 1.04219,0 1.19057,0.476076 1.19161,3.82323 8.5e-4,2.714537 0.0791,3.316348 0.52675,4.050543 0.97928,1.606145 1.85285,1.91371 5.43862,1.914821 2.12574,5.29e-4 3.29403,0.106797 3.50573,0.31849 0.40812,0.40812 0.40812,1.33813 0,1.74625 -0.40766,0.407651 -6.57785,0.384143 -7.88459,-0.03004 z m 33.655002,0.03004 c -0.17462,-0.174625 -0.3175,-0.567531 -0.3175,-0.873125 0,-1.042194 0.47608,-1.190575 3.82323,-1.191615 2.71454,-7.94e-4 3.31635,-0.0791 4.05055,-0.526748 1.60614,-0.979279 1.91371,-1.852845 1.91482,-5.438616 0.001,-3.347154 0.149421,-3.82323 1.191611,-3.82323 1.04082,0 1.19063,0.477182 1.19063,3.792533 0,3.920162 -0.30241,4.991187 -1.84476,6.533541 -0.719881,0.719878 -1.632561,1.32701 -2.286981,1.521354 -1.44327,0.428601 -7.29442,0.433078 -7.7216,0.0059 z m -28.495622,-7.34096 c -1.34126,-0.548963 -1.5822,-1.202182 -1.6759,-4.543523 l -0.0884,-3.152259 0.92184,-0.921837 0.92183,-0.921838 h 2.95002 c 4.63994,0 5.0404,0.402492 5.0404,5.06599 v 2.924427 l -0.89958,0.899583 -0.89959,0.899583 -2.87073,-0.01677 c -1.5789,-0.0092 -3.10885,-0.114234 -3.39989,-0.233356 z m 5.63246,-4.720873 0.0762,-2.457458 -2.45745,0.07621 -2.45746,0.07621 -0.0781,2.09328 c -0.0429,1.151303 -0.0151,2.257295 0.0618,2.457759 0.10732,0.27966 0.67963,0.346676 2.4593,0.28797 l 2.31943,-0.07651 z m 5.40066,4.653499 c -0.1828,-0.182803 -0.3175,-1.058333 -0.3175,-2.06375 0,-1.005416 0.1347,-1.880946 0.3175,-2.06375 0.21096,-0.21096 1.36201,-0.3175 3.43028,-0.3175 2.80299,0 3.13994,0.05075 3.38572,0.510001 0.66158,1.236189 -0.31676,1.871249 -2.88277,1.871249 h -1.86948 v 0.774851 c 0,1.293781 -1.26735,2.085295 -2.06375,1.288899 z m 9.88396,-0.270539 c -0.50473,-0.720603 -0.54782,-3.093646 -0.0681,-3.749714 0.22872,-0.312783 0.60509,-0.440405 1.12448,-0.381299 0.71269,0.0811 0.78779,0.186814 0.86206,1.213323 l 0.0814,1.124479 h 1.30771 c 1.303032,0 1.307702,-0.0031 1.307702,-0.873125 0,-1.05932 0.40101,-1.508125 1.34753,-1.508125 0.77637,0 1.03372,0.400603 1.03372,1.609141 0,0.750144 0.0376,0.772109 1.32292,0.772109 1.32024,0 1.32291,-0.0019 1.32291,-0.873125 0,-1.005324 0.39695,-1.508125 1.19063,-1.508125 0.91185,0 1.19062,0.534541 1.19062,2.282976 0,2.530242 0.12726,2.479524 -6.2216,2.479524 -5.270002,0 -5.399232,-0.0131 -5.801942,-0.588039 z m -9.73844,-7.10607 c -0.5315,-0.309576 -0.61339,-1.310098 -0.14552,-1.777974 0.21387,-0.213871 1.42287,-0.3175 3.70417,-0.3175 h 3.38667 v -1.322917 c 0,-1.320244 -0.002,-1.322916 -0.87313,-1.322916 -0.48022,0 -1.016,-0.142875 -1.19062,-0.3175 -0.40812,-0.40812 -0.40812,-1.33813 0,-1.74625 0.41818,-0.418182 3.70931,-0.418182 4.1275,0 0.21096,0.21096 0.3175,1.362006 0.3175,3.430275 0,2.806719 -0.0503,3.139702 -0.51178,3.386667 -0.66277,0.354705 -8.20284,0.344543 -8.81479,-0.01188 z m 12.43542,0 c -0.37569,-0.218819 -0.46302,-0.643086 -0.46302,-2.249438 0,-1.808279 0.0516,-1.999752 0.59531,-2.210644 0.90325,-0.350316 1.637322,0.248404 1.736592,1.416384 l 0.0829,0.975847 1.23998,-0.07996 c 1.20756,-0.07787 1.24209,-0.104164 1.32093,-1.005999 0.0445,-0.509323 0.27564,-1.07487 0.51359,-1.256771 0.61393,-0.469321 3.00079,-0.417145 3.7122,0.08115 1.12807,0.790125 0.57712,1.969373 -0.92008,1.969373 -0.77821,0 -0.87313,0.07989 -0.87313,0.734877 0,0.404186 -0.18534,0.999498 -0.41187,1.322917 -0.38265,0.546298 -0.61271,0.587468 -3.24115,0.579993 -1.5561,-0.0044 -3.037632,-0.129402 -3.292292,-0.27773 z M 60.498367,64.82415 c -0.43944,-0.439439 -0.3969,-1.152803 0.0983,-1.647976 0.60362,-0.603623 5.97316,-0.603623 6.57679,0 0.48755,0.487556 0.51399,0.75841 0.14188,1.453703 -0.24697,0.461454 -0.57995,0.511773 -3.38667,0.511773 -2.06827,0 -3.21931,-0.10654 -3.43027,-0.3175 z m 10.05416,0 c -0.40812,-0.40812 -0.40812,-1.33813 0,-1.74625 0.17898,-0.178978 1.0365,-0.3175 1.96548,-0.3175 1.73043,0 2.47952,0.389392 2.47952,1.288899 0,0.823063 -0.58702,1.092351 -2.38125,1.092351 -1.00541,0 -1.88094,-0.134697 -2.06375,-0.3175 z m 14.96219,-2.349527 c -0.3994,-0.232629 -0.46302,-0.696854 -0.46302,-3.37862 0,-3.293075 0.14863,-3.743937 1.23423,-3.743937 0.913072,0 1.147022,0.770583 1.147022,3.778057 0,2.332509 -0.0741,2.821599 -0.483852,3.192394 -0.55553,0.502745 -0.78973,0.527582 -1.43438,0.152106 z m 7.361092,-0.129997 c -0.22868,-0.228675 -0.41578,-0.817142 -0.41578,-1.307704 0,-0.860178 -0.04,-0.894826 -1.12448,-0.973288 -1.02651,-0.07427 -1.13222,-0.149378 -1.21332,-0.862063 -0.10494,-0.922118 0.48821,-1.468255 1.59462,-1.468255 0.66438,0 0.74318,-0.09258 0.74318,-0.873125 0,-1.005324 0.39695,-1.508125 1.19063,-1.508125 1.03035,0 1.19062,0.485384 1.19062,3.605893 0,3.041203 -0.23836,3.802441 -1.19062,3.802441 -0.19749,0 -0.54618,-0.187098 -0.77485,-0.415774 z m -32.377442,-2.54756 c -0.18281,-0.182803 -0.3175,-1.058333 -0.3175,-2.06375 0,-1.849588 0.26583,-2.38125 1.19062,-2.38125 0.9248,0 1.19063,0.531662 1.19063,2.38125 0,1.849589 -0.26583,2.38125 -1.19063,2.38125 -0.30559,0 -0.6985,-0.142875 -0.87312,-0.3175 z m 7.40833,0 c -0.17462,-0.174625 -0.3175,-0.710406 -0.3175,-1.190625 0,-0.811389 -0.0617,-0.873125 -0.87312,-0.873125 -1.00533,0 -1.50813,-0.396949 -1.50813,-1.190625 0,-0.924794 0.53166,-1.190625 2.38125,-1.190625 1.98345,0 2.38125,0.251939 2.38125,1.508125 0,0.76091 0.0872,0.873125 0.67885,0.873125 1.38744,0 2.20798,0.907392 1.69214,1.87125 -0.23107,0.431763 -0.56781,0.51 -2.19509,0.51 -1.14223,0 -2.05098,-0.128828 -2.23965,-0.3175 z m 7.30777,-0.342884 c -0.41338,-0.907261 0.31654,-1.720866 1.54386,-1.720866 0.87254,0 0.88504,-0.01681 0.88504,-1.190625 v -1.190625 l -1.78594,-0.0036 c -2.34167,-0.0047 -2.9486,-0.189733 -3.14129,-0.957482 -0.32279,-1.286091 0.12986,-1.420157 4.79494,-1.420157 4.69001,0 5.11879,0.129807 4.78761,1.449355 -0.13193,0.525648 -0.38395,0.697284 -1.22017,0.831002 -1.04242,0.166689 -1.0539,0.18113 -1.0539,1.325334 0,1.102684 0.0362,1.156809 0.77485,1.156809 0.86549,0 1.6064,0.594466 1.6064,1.2889 0,0.932574 -0.55038,1.09235 -3.76276,1.09235 -3.07816,0 -3.13253,-0.01048 -3.42864,-0.660384 z m -14.15627,-7.669787 -0.92184,-0.921838 0.0884,-3.173916 c 0.0853,-3.06135 0.11439,-3.19991 0.82129,-3.906808 0.7069,-0.706899 0.84546,-0.736027 3.90681,-0.821292 l 3.17391,-0.0884 0.92184,0.921838 0.92184,0.921838 v 2.950015 c 0,4.639943 -0.40249,5.040402 -5.06599,5.040402 h -2.92443 z m 6.47478,-3.906808 -0.0761,-2.447396 h -2.38125 -2.38125 l -0.0781,2.09328 c -0.0429,1.151305 -0.0169,2.252633 0.0579,2.447396 0.0997,0.259745 0.77534,0.354116 2.53536,0.354116 h 2.39949 z m 18.87076,4.459418 c -1.10449,-0.61217 -1.33261,-1.396797 -1.34266,-4.618168 l -0.009,-3.003021 0.92184,-0.921838 0.92183,-0.921838 3.173922,0.0884 c 3.06135,0.08526 3.19991,0.114393 3.90681,0.821292 0.7069,0.706898 0.73603,0.845458 0.82129,3.906808 l 0.0884,3.173916 -0.92184,0.921838 -0.92183,0.921838 -3.00302,-0.0094 c -1.98192,-0.0062 -3.218042,-0.128547 -3.635362,-0.359853 z m 5.924002,-4.525564 v -2.38125 h -2.38125 -2.38125 l -0.0762,2.457458 -0.0762,2.457458 2.45745,-0.07621 2.45746,-0.07621 z m -19.248442,2.227766 c -0.5315,-0.309575 -0.61339,-1.310097 -0.14552,-1.777974 0.18281,-0.182803 1.05834,-0.3175 2.06375,-0.3175 1.00542,0 1.88095,0.134697 2.06375,0.3175 0.48607,0.486071 0.37779,1.4837 -0.19427,1.789858 -0.65313,0.349544 -3.18079,0.341613 -3.78771,-0.01188 z m 7.36109,-0.129998 c -0.30806,-0.308056 -0.41577,-0.959258 -0.41577,-2.513541 V 45.2979 h -3.38667 c -2.2813,0 -3.4903,-0.103629 -3.70417,-0.3175 -0.40812,-0.40812 -0.40812,-1.33813 0,-1.74625 0.44507,-0.445071 8.70952,-0.445071 9.15459,0 0.21096,0.210961 0.3175,1.362005 0.3175,3.430274 0,2.806719 -0.0503,3.139704 -0.51178,3.386667 -0.69529,0.372109 -0.96614,0.345674 -1.4537,-0.141882 z M 53.090027,47.36165 c -0.42717,-0.427172 -0.42269,-6.27833 0.006,-7.721595 0.42525,-1.431968 2.37636,-3.383085 3.80833,-3.808332 1.44327,-0.428602 7.29443,-0.433078 7.7216,-0.0059 0.40812,0.408119 0.40812,1.338129 0,1.746249 -0.2117,0.211693 -1.37999,0.31783 -3.50573,0.318489 -3.58577,0.0011 -4.45934,0.308678 -5.43862,1.914822 -0.44764,0.734196 -0.52591,1.336005 -0.52675,4.050544 -10e-4,3.347154 -0.14942,3.823229 -1.19161,3.823229 -0.3056,0 -0.6985,-0.142875 -0.87313,-0.3175 z m 47.095843,0 c -0.211701,-0.211693 -0.317831,-1.379982 -0.318491,-3.505729 -8e-4,-2.714539 -0.0791,-3.316348 -0.52675,-4.050544 -0.97928,-1.606144 -1.85285,-1.913709 -5.43862,-1.914822 -3.34715,-10e-4 -3.82323,-0.14942 -3.82323,-1.191614 0,-1.040819 0.47718,-1.190624 3.79254,-1.190624 3.92016,0 4.99118,0.302406 6.533541,1.84476 1.54235,1.542354 1.84476,2.61338 1.84476,6.533541 0,3.315351 -0.14981,3.792532 -1.19063,3.792532 -0.30559,0 -0.6985,-0.142875 -0.87312,-0.3175 z"
         id="path847" />
      <path
         id="rect849"
         style="opacity:0.987288;fill:#000000;fill-opacity:1;stroke:none;stroke-width:0.737092;stroke-linejoin:round;stroke-dasharray:4.42255, 0.737092;stroke-dashoffset:0.515965"
         d="m 77.739607,79.718206 -8.66491,8.664909 h 17.329819 z" />
      <path
         id="path863"
         style="opacity:0.987288;fill:#000000;fill-opacity:1;stroke:none;stroke-width:0.737092;stroke-linejoin:round;stroke-dasharray:4.42255, 0.737092;stroke-dashoffset:0.515965"
         d="m 77.739607,30.733349 -8.66491,8.664909 h 17.329819 z" />
      <path
         id="path865"
         style="opacity:0.987288;fill:#000000;fill-opacity:1;stroke:none;stroke-width:0.737092;stroke-linejoin:round;stroke-dasharray:4.42255, 0.737092;stroke-dashoffset:0.515965"
         d="m 57.323365,59.797066 -8.664909,-8.66491 v 17.329819 z"
         inkscape:transform-center-x="11.544913"
         inkscape:transform-center-y="-3.390713" />
      <path
         id="path867"
         style="opacity:0.987288;fill:#000000;fill-opacity:1;stroke:none;stroke-width:0.737092;stroke-linejoin:round;stroke-dasharray:4.42255, 0.737092;stroke-dashoffset:0.515965"
         d="m 97.173462,59.797066 8.664908,-8.66491 v 17.329819 z"
         inkscape:transform-center-x="-11.544913"
         inkscape:transform-center-y="-3.390713" />
    </g>
  </g>
</svg>
